<svg xmlns="http://www.w3.org/2000/svg" viewBox="0 0 218.8 218.8"><defs><style>.cls-1{fill:#fff}.cls-2{fill:#ddd}.cls-3{fill:#a8a8a8}.cls-4{fill:none;stroke:#a8a8a8;stroke-miterlimit:10;stroke-width:8px}</style></defs><g id="Layer_2" data-name="Layer 2"><g id="Layer_1-2" data-name="Layer 1"><circle class="cls-1" cx="109.6" cy="109.4" r="105.4"/><path class="cls-1" d="M185.3 33.8a112.08 112.08 0 0 1 11.4 13.4L165 78.9c-.1-.1-.1-.4-.2-.5-.6-1-1.1-2-1.7-2.8-.2-.2-.3-.6-.6-.9a21.27 21.27 0 0 0-2.3-3.2l-.4-.4a28.33 28.33 0 0 0-2.3-2.8l-.8-.8a25.23 25.23 0 0 0-2.7-3 26.12 26.12 0 0 0-3-2.7l-.8-.8c-1-.7-1.8-1.5-2.8-2.3l-.2-.2c-1-.7-2.2-1.5-3.2-2.3-.2-.2-.6-.3-.8-.5-1-.6-2-1.3-3-1.8a.59.59 0 0 0-.5-.2L171.4 22a117.91 117.91 0 0 1 13.9 11.8zm-20.4 106.4l31.7 31.7a110.11 110.11 0 0 1-24.8 24.8L140 165a.59.59 0 0 1 .5-.2c1-.6 2-1.1 3-1.8.2-.2.5-.2.7-.4a52.07 52.07 0 0 0 6.6-5l.4-.4a41.13 41.13 0 0 0 5.9-5.9l.4-.4a76.35 76.35 0 0 0 5-6.6c.2-.2.2-.5.4-.7.6-1.1 1.3-2 1.8-3 .2-.2.2-.2.2-.4zm-86.2 24.6a.59.59 0 0 0 .5.2l-31.7 31.7a122.14 122.14 0 0 1-13.4-11.4 113.47 113.47 0 0 1-11.4-13.4l31.7-31.7c.1.1.1.4.2.5.6 1 1.1 2 1.7 2.8.2.2.3.6.5.8a21.27 21.27 0 0 0 2.3 3.2l.4.4a28.33 28.33 0 0 0 2.3 2.8l.8.8a24.36 24.36 0 0 0 2.7 3 26.12 26.12 0 0 0 3 2.7l.8.8c1 .7 1.8 1.5 2.8 2.3l.4.4c1 .7 2.2 1.5 3.2 2.3.2.2.6.3.8.5s1.2.6 2.4 1.3zM47.1 22.5l31.7 31.7c-.1.1-.4.1-.5.2-1 .6-2 1.1-2.8 1.7-.2.2-.6.3-.8.5a23.49 23.49 0 0 0-3.2 2.3l-.4.4a28.33 28.33 0 0 0-2.8 2.3l-.8.8a25.23 25.23 0 0 0-3 2.7 26.12 26.12 0 0 0-2.7 3l-.8.8c-.7 1-1.5 1.8-2.3 2.8l-.4.4c-.8 1.1-1.5 2.2-2.3 3.2-.2.2-.3.6-.5.8-.6 1-1.2 1.9-1.7 2.8a.59.59 0 0 0-.2.5L22.1 47.5a111.87 111.87 0 0 1 25-25z"/><path class="cls-2" d="M164.3 17.5l-32.7 32.7c-1.6-.5-3.3-1.1-4.8-1.6-.3 0-.6-.1-.6-.2-1.6-.4-3.2-.8-4.8-1.1a2.92 2.92 0 0 1-.9-.2c-1.6-.4-3.3-.4-4.8-.7h-.7a61.36 61.36 0 0 0-10.5 0h-.7c-1.6.1-3.3.4-5 .6-.3 0-.6.1-.8.1-1.6.4-3.3.6-4.8 1.1-.3 0-.5.2-.6.2-1.6.5-3.4 1-4.9 1.6L54.9 17.3a106.78 106.78 0 0 1 109.4.2z"/><path class="cls-3" d="M201.6 54.7a106.5 106.5 0 0 1 0 109.5l-32.8-32.8c.5-1.6 1.1-3.3 1.6-4.8 0-.3.1-.6.1-.8.4-1.6.8-3.2 1.1-4.8.1-.4.1-.6.2-.9.4-1.6.4-3.3.7-4.8v-.7a50.65 50.65 0 0 0 0-10.3v-.7c-.1-1.6-.4-3.3-.6-4.9 0-.3-.1-.6-.1-.8-.4-1.6-.6-3.3-1.1-4.8 0-.3-.1-.6-.2-.6a31.1 31.1 0 0 0-1.6-4.9l32.9-32.9z"/><path class="cls-2" d="M131.5 168.9l32.8 32.8a106.5 106.5 0 0 1-109.5 0L87.5 169c1.6.5 3.3 1.1 4.8 1.6.4.1.6.1.9.2 1.6.4 3.2.8 4.8 1.1.4.1.6.1.9.2 1.6.4 3.3.4 4.8.7h.7a59 59 0 0 0 10.3 0h.7c1.6-.1 3.3-.4 5-.6.3 0 .6-.1.8-.1 1.6-.4 3.3-.6 4.8-1.1.3 0 .5-.2.6-.2a49.4 49.4 0 0 1 4.9-1.9z"/><path class="cls-3" d="M17.4 54.8l32.8 32.8c-.5 1.6-1.1 3.3-1.6 4.8 0 .3-.1.6-.1.8-.4 1.6-.8 3.2-1.1 4.8-.1.4-.1.6-.2.9-.4 1.6-.4 3.3-.7 4.8v.7a61.36 61.36 0 0 0 0 10.5v.7a42.61 42.61 0 0 0 .6 5c0 .3.1.6.1.8.4 1.6.6 3.3 1.1 4.8 0 .3.2.5.2.6a35.15 35.15 0 0 0 1.6 4.9l-32.8 32.8a107.78 107.78 0 0 1 .1-109.7zm81.9 10a3.25 3.25 0 0 0-2.5 1.1 3.58 3.58 0 0 0-1.1 2.5v82.7a3.53 3.53 0 0 0 1.8 3.1 3.83 3.83 0 0 0 3.6 0 3.53 3.53 0 0 0 1.8-3.1V68.4a3.25 3.25 0 0 0-1.1-2.5 3.58 3.58 0 0 0-2.5-1.1zM85.5 80.9A3.25 3.25 0 0 0 83 82a3.58 3.58 0 0 0-1.1 2.5V135a3.53 3.53 0 0 0 1.8 3.1 3.83 3.83 0 0 0 3.6 0 3.53 3.53 0 0 0 1.8-3.1V84.5A3.25 3.25 0 0 0 88 82a3.58 3.58 0 0 0-2.5-1.1zm27.5 0a3.25 3.25 0 0 0-2.5 1.1 3.58 3.58 0 0 0-1.1 2.5V135a3.53 3.53 0 0 0 1.8 3.1 3.82 3.82 0 0 0 3.6 0 3.53 3.53 0 0 0 1.8-3.1V84.5a3.77 3.77 0 0 0-3.6-3.6zm27.6 0a3.25 3.25 0 0 0-2.5 1.1 3.58 3.58 0 0 0-1.1 2.5V135a3.53 3.53 0 0 0 1.8 3.1 3.82 3.82 0 0 0 3.6 0 3.53 3.53 0 0 0 1.8-3.1V84.5a3.25 3.25 0 0 0-1.1-2.5 3.41 3.41 0 0 0-2.5-1.1zm-13.8 13.8a3.25 3.25 0 0 0-2.5 1.1 3.58 3.58 0 0 0-1.1 2.5v23a3.53 3.53 0 0 0 1.8 3.1 3.82 3.82 0 0 0 3.6 0 3.53 3.53 0 0 0 1.8-3.1v-23a3.25 3.25 0 0 0-1.1-2.5 3 3 0 0 0-2.5-1.1zm27.6 0a3.25 3.25 0 0 0-2.5 1.1 3.58 3.58 0 0 0-1.1 2.5v23a3.53 3.53 0 0 0 1.8 3.1 3.82 3.82 0 0 0 3.6 0 3.53 3.53 0 0 0 1.8-3.1v-23a3.25 3.25 0 0 0-1.1-2.5 3.21 3.21 0 0 0-2.5-1.1zm-82.7 0a3.77 3.77 0 0 0-3.6 3.6v23a3.53 3.53 0 0 0 1.8 3.1 3.83 3.83 0 0 0 3.6 0 3.53 3.53 0 0 0 1.8-3.1v-23a3.25 3.25 0 0 0-1.1-2.5 3.07 3.07 0 0 0-2.5-1.1z"/><circle class="cls-4" cx="109.4" cy="109.4" r="105.4"/></g></g></svg>